HIERARCHY
ROOT Hips
{
	OFFSET 0.00 0.00 0.00
	CHANNELS 6 Xposition Yposition Zposition Xrotation Yrotation Zrotation
	JOINT Spine
	{
		OFFSET 0.00000 0.84964 1.27446
		CHANNELS 3 Xrotation Yrotation Zrotation
		JOINT Spine1
		{
			OFFSET 0.00000 0.29508 1.67346
			CHANNELS 3 Xrotation Yrotation Zrotation
			JOINT Spine2
			{
				OFFSET 0.00000 0.14810 1.69281
				CHANNELS 3 Xrotation Yrotation Zrotation
				JOINT Spine3
				{
					OFFSET 0.00000 0.00000 1.69928
					CHANNELS 3 Xrotation Yrotation Zrotation
					JOINT Neck
					{
						OFFSET 0.00000 -0.63723 4.46061
						CHANNELS 3 Xrotation Yrotation Zrotation
						JOINT Head
						{
							OFFSET 0.00000 -0.40573 2.30101
							CHANNELS 3 Xrotation Yrotation Zrotation
							End Site
							{
								OFFSET 0.00000 0.00000 2.75071
							}
						}
					}
					JOINT RightShoulder
					{
						OFFSET -0.72014 -1.20022 3.88874
						CHANNELS 3 Xrotation Yrotation Zrotation
						JOINT RightArm
						{
							OFFSET -3.57668 0.00000 0.00000
							CHANNELS 3 Xrotation Yrotation Zrotation
							JOINT RightForeArm
							{
								OFFSET -5.92485 0.00000 0.00000
								CHANNELS 3 Xrotation Yrotation Zrotation
								JOINT RightHand
								{
									OFFSET -6.63013 0.00000 0.00000
									CHANNELS 3 Xrotation Yrotation Zrotation
									JOINT RightHandEnd
									{
										OFFSET -1.65321 0.00000 0.00000
										CHANNELS 3 Xrotation Yrotation Zrotation
										End Site
										{
											OFFSET -1.65321 0.00000 0.00000
										}
									}
									JOINT RightHandThumb1
									{
										OFFSET -0.66129 -1.10214 -0.44086
										CHANNELS 3 Yrotation Xrotation Zrotation
										End Site
										{
											OFFSET -1.59688 -0.42788 0.00000
										}
									}
								}
							}
						}
					}
					JOINT LeftShoulder
					{
						OFFSET 0.72014 -1.20022 3.88874
						CHANNELS 3 Xrotation Yrotation Zrotation
						JOINT LeftArm
						{
							OFFSET 3.57668 0.00000 0.00000
							CHANNELS 3 Xrotation Yrotation Zrotation
							JOINT LeftForeArm
							{
								OFFSET 5.92485 0.00000 0.00000
								CHANNELS 3 Xrotation Yrotation Zrotation
								JOINT LeftHand
								{
									OFFSET 6.63013 0.00000 0.00000
									CHANNELS 3 Xrotation Yrotation Zrotation
									JOINT LeftHandEnd
									{
										OFFSET 1.65321 0.00000 0.00000
										CHANNELS 3 Xrotation Yrotation Zrotation
										End Site
										{
											OFFSET 1.65321 0.00000 0.00000
										}
									}
									JOINT LeftHandThumb1
									{
										OFFSET 0.66129 -1.10214 -0.44086
										CHANNELS 3 Yrotation Xrotation Zrotation
										End Site
										{
											OFFSET 1.59688 -0.42788 0.00000
										}
									}
								}
							}
						}
					}
				}
			}
		}
	}
	JOINT RightUpLeg
	{
		OFFSET -2.13640 0.00000 -0.62412
		CHANNELS 3 Xrotation Yrotation Zrotation
		JOINT RightLeg
		{
			OFFSET 0.00000 0.00000 -11.49360
			CHANNELS 3 Xrotation Yrotation Zrotation
			JOINT RightFoot
			{
				OFFSET 0.00000 0.00000 -8.79036
				CHANNELS 3 Xrotation Yrotation Zrotation
				JOINT RightToeBase
				{
					OFFSET 0.00000 -3.94625 -1.43632
					CHANNELS 3 Xrotation Yrotation Zrotation
					End Site
					{
						OFFSET 0.00000 -1.72833 -0.00000
					}
				}
			}
		}
	}
	JOINT LeftUpLeg
	{
		OFFSET 2.13640 0.00000 -0.62412
		CHANNELS 3 Xrotation Yrotation Zrotation
		JOINT LeftLeg
		{
			OFFSET 0.00000 0.00000 -11.49360
			CHANNELS 3 Xrotation Yrotation Zrotation
			JOINT LeftFoot
			{
				OFFSET 0.00000 0.00000 -8.79036
				CHANNELS 3 Xrotation Yrotation Zrotation
				JOINT LeftToeBase
				{
					OFFSET 0.00000 -3.94625 -1.43632
					CHANNELS 3 Xrotation Yrotation Zrotation
					End Site
					{
						OFFSET 0.00000 -1.72833 -0.00000
					}
				}
			}
		}
	}
}
MOTION
Frames: 10
Frame Time: 0.008342
 -3.1850 -32.8972 22.0691 -15.6535 1.2321 -172.9670 8.8584 -8.3488 -0.2428 1.6251 -2.1354 -0.6333 -0.5428 -3.1711 3.7987 -1.5230 2.8472 -1.1542 -3.6898 10.7129 0.4933 -4.9241 -5.2044 -14.9054 -8.0109 12.5465 16.7571 -45.2756 -23.8585 -20.7675 -0.0000 0.0001 101.6260 26.2400 63.2094 -7.0050 -0.0000 -0.0000 0.0000 -0.0000 0.0000 0.0000 -8.7018 -14.1773 -13.9327 -59.3032 47.3780 5.5419 -0.0001 -0.0001 -84.1364 -0.1913 -24.3900 1.3899 0.0000 -0.0000 -0.0000 -0.0000 0.0000 0.0000 -3.3548 9.0558 -23.6646 48.2670 0.0000 0.0000 -1.9517 10.7576 17.0855 -17.6729 0.0000 -0.0000 -2.0872 -1.3176 13.0156 45.6705 0.0000 0.0000 0.2435 -17.7700 -6.1418 -28.7600 0.0000 -0.0000
 -3.1455 -32.1082 22.3599 -15.1253 0.9538 -172.1940 7.2067 -8.2604 -0.4833 1.3031 -2.0599 -0.6366 -1.2611 -2.9988 3.4245 -1.3219 2.8648 -1.2706 -1.6511 10.6224 0.0240 -2.3086 -6.3921 -15.0034 -5.8954 12.2410 15.0564 -43.7496 -24.7331 -20.9131 -0.0000 0.0001 100.3522 27.5206 62.7647 -6.7480 0.0000 0.0000 -0.0000 0.0000 -0.0000 -0.0000 -7.0916 -13.6286 -12.3443 -54.6576 48.2393 1.5339 -0.0001 -0.0001 -83.2828 0.9103 -24.7501 1.4470 0.0000 0.0000 0.0000 0.0000 0.0000 0.0000 -0.8018 7.7096 -23.5175 44.2133 0.0000 0.0000 4.3844 11.2203 17.5290 -14.4167 0.0000 -0.0000 -0.4358 -0.9141 9.6204 43.4787 0.0000 0.0000 5.9703 -19.0681 -5.2522 -27.2634 0.0000 -0.0000
 -3.0995 -31.3440 22.6516 -14.6447 0.7068 -171.6779 5.6993 -8.0727 -0.6725 1.0101 -2.0037 -0.6336 -1.9635 -2.8130 3.1612 -1.1189 2.9147 -1.3554 0.2956 10.5629 -0.4224 0.2637 -7.5796 -14.8471 -4.0259 11.6592 13.5190 -41.8623 -26.0434 -20.5995 -0.0000 0.0001 98.9335 28.7360 61.8475 -6.5589 0.0000 -0.0000 0.0000 -0.0000 -0.0000 -0.0000 -5.4686 -12.7650 -10.8942 -49.9776 48.9189 -2.6920 -0.0000 -0.0001 -82.1431 1.8600 -24.9524 1.4978 0.0000 -0.0000 -0.0000 0.0000 0.0000 -0.0000 1.2060 6.4322 -22.8783 40.8174 0.0000 0.0000 10.2673 11.3730 17.7416 -11.3182 0.0000 -0.0000 0.6838 -0.4972 6.2812 42.2634 0.0000 0.0000 11.0720 -20.1370 -4.2090 -25.6962 0.0000 -0.0000
 -3.0496 -30.6143 22.9437 -14.2439 0.5315 -171.4728 4.3463 -7.7928 -0.7985 0.7510 -1.9547 -0.6148 -2.5974 -2.6293 3.0029 -0.9127 2.9988 -1.4017 2.0992 10.5638 -0.8291 2.6869 -8.7344 -14.4363 -2.5037 10.8198 12.2105 -39.6987 -27.6828 -19.8436 -0.0000 0.0001 97.3901 29.7888 60.5597 -6.4235 0.0000 -0.0000 -0.0000 0.0000 0.0000 0.0000 -3.8703 -11.5496 -9.5992 -45.4995 49.3425 -6.8904 -0.0000 -0.0001 -80.7960 2.5966 -24.9810 1.5288 -0.0000 0.0000 -0.0000 0.0000 0.0000 -0.0000 2.5134 5.4213 -21.8780 38.4894 0.0000 0.0000 15.3022 11.2147 17.7604 -8.7206 0.0000 -0.0000 1.1595 -0.0110 3.2961 42.2057 0.0000 0.0000 15.2397 -20.8809 -3.1199 -24.2733 0.0000 -0.0000
 -2.9973 -29.9242 23.2357 -13.8414 0.3978 -171.5941 3.2422 -7.5034 -0.8597 0.5362 -1.9266 -0.6036 -3.1128 -2.4616 2.9782 -0.7015 3.1378 -1.4202 3.7173 10.6442 -1.1818 4.8544 -9.8300 -13.7956 -1.3788 9.7375 11.1709 -37.3368 -29.5156 -18.6761 -0.0000 0.0001 95.7194 30.6032 59.0624 -6.3309 0.0000 -0.0000 0.0000 -0.0000 0.0000 -0.0000 -2.3593 -9.9880 -8.4929 -41.4620 49.4911 -10.7434 -0.0000 -0.0001 -79.3424 3.0898 -24.8405 1.5363 -0.0000 -0.0000 0.0000 -0.0000 -0.0000 0.0000 3.1113 4.7340 -20.7157 37.5160 0.0000 0.0000 19.2059 10.8041 17.6298 -6.7137 0.0000 -0.0000 1.0207 0.4919 0.9591 43.3753 0.0000 0.0000 18.2522 -21.3069 -2.0993 -23.1469 0.0000 -0.0000
 -2.9441 -29.2782 23.5248 -13.3918 0.2733 -172.0257 2.4445 -7.2792 -0.8742 0.3747 -1.9195 -0.5921 -3.4833 -2.3131 3.0763 -0.4880 3.3325 -1.4160 5.1209 10.8184 -1.4693 6.6711 -10.8422 -12.9741 -0.6495 8.4507 10.4207 -34.8461 -31.4070 -17.1596 -0.0000 0.0001 93.9145 31.1569 57.5381 -6.3167 0.0000 -0.0000 0.0000 -0.0000 -0.0000 -0.0000 -0.9727 -8.1240 -7.6155 -38.0883 49.3882 -13.9428 -0.0000 -0.0001 -77.8790 3.3337 -24.5570 1.5247 0.0000 -0.0000 0.0000 0.0000 -0.0000 0.0000 2.9870 4.3839 -19.6047 38.0599 0.0000 0.0000 21.8213 10.2299 17.3806 -5.2273 0.0000 -0.0000 0.2972 0.9394 -0.5199 45.7206 0.0000 0.0000 20.0282 -21.4775 -1.1997 -22.3774 0.0000 -0.0000
 -2.8896 -28.6797 23.8047 -12.8602 0.0790 -172.7262 2.0047 -7.2227 -0.8636 0.2716 -1.9212 -0.5737 -3.7032 -2.1912 3.2795 -0.2867 3.5868 -1.3935 6.2934 11.0684 -1.6897 8.0548 -11.7334 -12.0377 -0.2775 7.0393 9.9666 -32.3059 -33.2666 -15.4105 -0.0000 0.0001 91.9646 31.3966 56.1615 -6.3441 -0.0000 0.0000 0.0000 0.0000 0.0000 -0.0000 0.2482 -6.0858 -7.0028 -35.5358 49.1303 -16.2282 -0.0000 -0.0001 -76.4763 3.3456 -24.1801 1.5056 -0.0000 0.0000 -0.0000 0.0000 -0.0000 -0.0000 2.1839 4.2777 -18.6892 40.0693 0.0000 0.0000 23.1580 9.5470 16.9775 -4.1424 0.0000 -0.0000 -0.9644 1.1846 -1.0656 49.1153 0.0000 0.0000 20.5818 -21.4554 -0.4123 -21.9666 0.0000 -0.0000
 -2.8353 -28.1347 24.0650 -12.4131 -0.1351 -173.6670 1.8013 -7.2517 -0.8084 0.2378 -1.9398 -0.5667 -3.8016 -2.0762 3.5835 -0.1120 3.8883 -1.3701 7.2201 11.3489 -1.8366 8.9424 -12.4523 -11.0686 -0.2086 5.6197 9.8052 -29.7895 -35.0656 -13.5688 -0.0000 0.0001 89.8699 31.3083 55.0632 -6.3876 0.0000 -0.0000 0.0000 -0.0000 0.0000 0.0000 1.2752 -4.0746 -6.6625 -33.8826 48.8767 -17.4278 -0.0000 -0.0001 -75.1728 3.1659 -23.7588 1.4844 0.0000 -0.0000 0.0000 0.0000 -0.0000 0.0000 0.5683 4.4793 -18.0473 43.4586 0.0000 0.0000 23.2492 8.8012 16.3784 -3.3433 0.0000 -0.0000 -2.8670 1.2420 -0.7396 53.3454 0.0000 0.0000 20.0355 -21.2484 0.3432 -21.8736 0.0000 -0.0000
 -2.7815 -27.6417 24.2965 -11.9811 -0.3536 -174.7950 1.9486 -7.3428 -0.7052 0.2611 -1.9474 -0.5400 -3.8107 -1.9745 3.9275 0.0146 4.2224 -1.3463 7.8920 11.5945 -1.9112 9.2968 -12.9355 -10.1542 -0.3944 4.3500 9.9131 -27.3601 -36.8589 -11.7830 -0.0000 0.0001 87.6392 30.8812 54.3098 -6.3813 0.0000 0.0000 -0.0000 0.0000 -0.0000 -0.0000 2.0564 -2.3228 -6.5946 -33.1013 48.7996 -17.4575 -0.0000 -0.0001 -73.9772 2.8524 -23.3388 1.4758 -0.0000 -0.0000 -0.0000 -0.0000 -0.0000 0.0000 -1.6375 4.9298 -17.6882 47.8691 0.0000 0.0000 22.2453 8.0031 15.5138 -2.7500 0.0000 -0.0000 -5.2232 1.0550 0.2854 58.1306 0.0000 0.0000 18.5206 -20.8446 1.1269 -22.0525 0.0000 -0.0000
 -2.7292 -27.1980 24.4921 -11.6139 -0.5285 -176.0522 2.3999 -7.4134 -0.5457 0.3524 -1.9440 -0.4962 -3.7665 -1.8528 4.2745 0.0825 4.5563 -1.3258 8.2958 11.7478 -1.9099 9.1283 -13.1470 -9.3678 -0.7897 3.3436 10.2547 -25.0449 -38.6994 -10.1400 -0.0000 0.0001 85.2990 30.1366 53.8908 -6.2780 0.0000 0.0000 0.0000 -0.0000 0.0000 -0.0000 2.5782 -0.9968 -6.7407 -33.0705 49.0144 -16.4259 -0.0000 -0.0001 -72.8405 2.4613 -22.9608 1.4745 0.0000 -0.0000 0.0000 -0.0000 -0.0000 0.0000 -4.3305 5.6150 -17.5795 52.9322 0.0000 0.0000 20.2781 7.1724 14.3399 -2.3235 0.0000 -0.0000 -7.9598 0.6511 1.7775 63.1835 0.0000 0.0000 16.1792 -20.2259 1.9731 -22.4496 0.0000 -0.0000
